# xmcd
#
# Track frame offsets: 
#        150
#        19102
#        34554
#        51353
#        67738
#        88381
#        109021
#        126534
#        143158
#        155951
#        175732
#        198187
#        214006
#        232569
#        252600
#        280399
#
# Disc length: 4440 seconds
#
# Revision: 5
# Processed by: cddbd v1.5.2PL0 Copyright (c) Steve Scherf et al.
# Submitted via: ExactAudioCopy v0.99pb5
#
DISCID=e6115610
DTITLE=Joe - And Then...
DYEAR=2003
DGENRE=R&B
TTITLE0=Ride Wit U (Feat. G-Unit)
TTITLE1=And Then...
TTITLE2=More and More
TTITLE3=Sweeter Than Sugar
TTITLE4=Priceless
TTITLE5=Jeep
TTITLE6=You Dropped Your Dime
TTITLE7=Make You My Baby
TTITLE8=Street Dreams
TTITLE9=It Ain't Like That
TTITLE10=Another Used To Be
TTITLE11=Bedroom
TTITLE12=Testify
TTITLE13=Hey Mami (Bonus Track)
TTITLE14=I Remember (Bonus Track)
TTITLE15=cdplayer [macrovision copy protection]
EXTD=YEAR: 2004
EXTT0=featuring g-unit
EXTT1=
EXTT2=
EXTT3=
EXTT4=
EXTT5=
EXTT6=
EXTT7=
EXTT8=
EXTT9=
EXTT10=
EXTT11=
EXTT12=
EXTT13=
EXTT14=featuring freeway
EXTT15=
PLAYORDER=
